<?xml version="1.0" standalone="no"?>
<!DOCTYPE svg PUBLIC "-//W3C//DTD SVG 20010904//EN"
 "http://www.w3.org/TR/2001/REC-SVG-20010904/DTD/svg10.dtd">
<svg version="1.0" xmlns="http://www.w3.org/2000/svg"
 width="368.000000pt" height="121.000000pt" viewBox="0 0 368.000000 121.000000"
 preserveAspectRatio="xMidYMid meet">

<g transform="translate(0.000000,121.000000) scale(0.100000,-0.100000)"
fill="#000000" stroke="none">
<path d="M700 1131 c-5 -11 -18 -55 -29 -98 -10 -44 -28 -97 -39 -119 -29 -55
-120 -154 -142 -154 -28 0 -34 -18 -8 -22 19 -2 23 -9 21 -32 -3 -36 -17 -46
-70 -46 -45 0 -73 -8 -73 -20 0 -4 32 -7 72 -6 60 1 73 -2 76 -15 2 -11 -7
-20 -27 -27 -17 -6 -31 -18 -31 -27 0 -12 4 -14 19 -5 32 17 46 12 60 -22 8
-18 15 -37 15 -41 1 -5 -33 -23 -74 -41 -95 -41 -151 -76 -213 -134 -62 -59
-89 -110 -83 -158 6 -45 18 -54 77 -54 58 0 101 15 164 57 l50 33 8 -29 c4
-16 20 -40 35 -51 24 -20 36 -22 112 -17 125 6 160 28 175 110 4 20 12 37 19
37 6 0 54 -12 105 -25 110 -29 226 -33 291 -10 24 8 77 15 119 15 42 0 160 5
263 11 l187 11 31 -25 c17 -15 56 -34 88 -43 68 -19 87 -28 87 -40 1 -5 4 -21
8 -36 15 -57 115 -47 307 33 88 36 137 50 192 55 40 4 85 13 100 21 36 18 62
67 54 104 -6 34 -3 35 55 12 35 -13 78 -17 204 -17 155 -1 163 0 255 32 114
38 200 93 269 168 81 88 91 171 26 203 -44 21 -80 11 -380 -115 -176 -73 -286
-58 -485 67 -154 96 -233 135 -304 148 -33 6 -156 13 -275 16 -333 8 -632 25
-677 37 l-41 12 -5 85 c-6 102 -27 161 -58 161 -12 0 -55 -33 -106 -80 l-85
-80 -87 0 c-115 0 -132 10 -192 123 -34 61 -44 68 -60 38z m87 -135 c25 -28
21 -36 -18 -36 -15 0 -31 -5 -35 -11 -4 -8 40 -10 154 -7 185 4 185 3 263 104
25 32 53 60 61 62 27 5 48 -69 48 -168 l0 -90 58 -1 c31 0 91 -4 132 -10 41
-5 237 -13 435 -18 331 -8 365 -10 425 -30 71 -24 160 -73 290 -161 111 -75
134 -86 209 -100 106 -19 240 12 366 86 75 43 194 85 233 82 29 -2 40 -9 51
-32 13 -27 12 -34 -9 -74 -50 -94 -199 -194 -347 -233 -143 -37 -390 -22 -493
31 -19 10 -60 44 -90 75 -54 55 -114 95 -145 95 -27 0 -16 -16 20 -29 19 -7
59 -34 88 -61 l52 -49 -82 -1 c-45 0 -93 -4 -107 -10 -32 -12 -35 -35 -3 -26
46 14 144 18 184 7 51 -14 103 -56 103 -83 0 -11 -13 -33 -29 -49 -23 -23 -38
-29 -73 -29 -65 0 -157 -25 -255 -69 -140 -62 -236 -79 -263 -46 -21 25 -4 45
39 45 42 0 141 28 216 61 74 33 44 34 -52 3 -122 -40 -251 -41 -335 -2 -31 14
-64 37 -73 51 -36 56 -31 146 12 197 31 37 23 52 -12 20 -34 -32 -47 -80 -43
-153 l3 -62 -140 -6 c-77 -4 -187 -10 -245 -14 l-105 -8 37 39 c46 50 74 105
86 172 10 54 -2 85 -14 35 -18 -81 -26 -103 -54 -145 -31 -47 -82 -88 -135
-109 -55 -21 -164 -12 -322 25 -166 40 -258 46 -318 20 -21 -9 -80 -44 -131
-79 -68 -46 -106 -66 -139 -71 -206 -30 -48 222 190 307 86 30 216 29 365 -4
148 -33 228 -41 263 -28 46 18 31 29 -30 24 -57 -5 -95 0 -243 33 -41 9 -113
19 -160 23 -82 6 -85 7 -107 40 -13 19 -21 42 -18 52 3 9 1 20 -5 24 -20 12
-10 34 18 37 l27 4 -27 12 c-22 9 -28 18 -28 43 0 27 3 30 23 25 80 -21 74
-22 53 2 -10 12 -27 24 -37 27 -28 9 -24 18 32 79 47 52 89 137 89 183 0 10 5
36 11 57 l11 39 27 -46 c15 -26 37 -58 48 -71z m-39 -732 c31 -9 30 -63 -2
-101 -23 -27 -27 -28 -121 -28 -94 0 -98 1 -117 26 -27 36 -17 63 35 88 42 21
152 29 205 15z"/>
<path d="M667 804 c-16 -16 -6 -44 17 -50 34 -8 57 -2 70 18 15 25 2 32 -26
14 -24 -16 -42 -11 -49 12 -3 7 -8 10 -12 6z"/>
<path d="M992 775 c-9 -20 -19 -25 -46 -25 -19 0 -42 7 -51 16 -20 20 -33 10
-19 -14 18 -28 78 -38 109 -18 30 20 42 43 28 57 -6 6 -14 0 -21 -16z"/>
<path d="M1184 739 c-75 -14 -124 -30 -124 -40 0 -7 10 -9 28 -4 15 4 53 12
85 19 32 7 58 15 58 20 1 12 -4 13 -47 5z"/>
<path d="M710 664 c0 -9 7 -14 17 -12 25 5 28 28 4 28 -12 0 -21 -6 -21 -16z"/>
<path d="M1072 648 c3 -9 32 -13 98 -13 66 0 94 4 97 13 4 9 -20 12 -97 12
-77 0 -101 -3 -98 -12z"/>
<path d="M860 642 c0 -21 -39 -52 -67 -52 -14 0 -35 8 -45 17 -14 13 -21 14
-30 5 -7 -7 -25 -12 -40 -12 -15 0 -28 -4 -28 -9 0 -15 38 -23 56 -13 11 6 26
4 46 -6 39 -19 84 -6 111 31 16 21 18 30 9 39 -9 9 -12 9 -12 0z"/>
<path d="M1052 578 c3 -7 32 -20 65 -29 33 -9 69 -22 81 -28 29 -16 38 4 10
23 -24 15 -122 46 -146 46 -7 0 -12 -6 -10 -12z"/>
</g>
</svg>
