<!DOCTYPE svg PUBLIC "-//W3C//DTD SVG 20010904//EN" "http://www.w3.org/TR/2001/REC-SVG-20010904/DTD/svg10.dtd">
<svg version="1.0" xmlns="http://www.w3.org/2000/svg" width="690px" height="225px" viewBox="0 0 6900 2250" preserveAspectRatio="xMidYMid meet">
<g id="layer101" fill="#131313" stroke="none">
 <path d="M3865 2223 c-11 -3 -30 -14 -42 -26 -19 -17 -23 -31 -23 -84 l0 -63 -41 0 c-50 0 -189 -45 -244 -79 -22 -13 -58 -39 -80 -57 -41 -33 -41 -33 -135 -29 -304 13 -549 26 -575 32 -16 3 -124 9 -240 13 -187 6 -216 9 -270 30 -104 41 -352 31 -521 -21 -17 -5 -39 -9 -50 -9 -10 0 -32 -7 -48 -15 -15 -8 -38 -15 -50 -15 -11 0 -40 -7 -64 -15 -24 -9 -48 -13 -53 -10 -5 4 -9 30 -9 60 0 64 -30 139 -70 175 -37 33 -116 60 -176 60 -27 0 -80 5 -119 10 -84 13 -166 -1 -211 -36 -38 -28 -74 -94 -74 -134 0 -17 -2 -30 -4 -30 -3 0 -49 30 -103 67 -115 78 -139 88 -240 109 -124 26 -235 -1 -268 -66 -20 -39 -19 -56 9 -128 33 -84 103 -187 168 -247 48 -44 156 -124 204 -151 94 -53 123 -68 177 -90 82 -34 175 -64 198 -64 29 0 32 -18 6 -52 -14 -18 -31 -51 -38 -73 -17 -52 -26 -62 -41 -47 -7 7 -22 12 -34 12 -13 0 -25 4 -28 9 -10 15 -87 24 -99 12 -16 -16 2 -30 61 -51 98 -35 107 -42 104 -80 -2 -19 -7 -38 -10 -42 -4 -4 -52 -2 -107 4 -148 16 -166 15 -179 -4 -14 -23 1 -38 45 -42 34 -4 114 -12 199 -22 24 -3 45 -6 46 -7 9 -11 9 -109 0 -115 -6 -4 -72 -7 -146 -7 -130 0 -135 -1 -138 -21 -3 -19 3 -22 53 -29 31 -3 101 -5 155 -4 l99 3 28 -52 c15 -29 60 -85 99 -124 117 -121 132 -154 185 -423 6 -33 21 -86 32 -117 31 -92 56 -100 93 -32 129 242 183 306 279 333 55 15 156 14 240 -3 135 -27 181 -59 277 -195 65 -92 78 -106 120 -134 109 -69 190 89 205 399 l6 121 171 6 c94 4 200 11 236 17 171 28 276 33 830 39 419 5 611 11 650 20 54 12 137 30 162 35 7 2 27 8 43 15 17 6 44 17 60 23 63 25 165 84 335 194 69 45 139 89 155 98 17 9 57 33 90 52 33 19 80 44 105 56 25 11 52 24 61 28 87 43 333 57 462 26 100 -24 300 -106 350 -143 7 -5 46 -24 87 -42 41 -18 102 -46 136 -62 33 -16 66 -29 72 -29 7 0 20 -4 30 -10 9 -5 42 -16 74 -25 140 -38 244 -3 277 94 14 42 15 128 1 136 -5 3 -10 17 -10 31 0 13 -4 24 -10 24 -5 0 -10 7 -10 14 0 23 -57 102 -113 158 -125 124 -305 233 -482 293 -27 9 -59 21 -70 25 -20 8 -56 16 -207 45 -106 21 -401 20 -527 -1 -115 -19 -162 -31 -218 -55 -24 -11 -45 -19 -48 -19 -9 0 -5 39 5 45 17 11 11 94 -10 133 -50 95 -96 119 -244 133 -61 6 -133 14 -161 18 -55 9 -178 52 -183 64 -2 4 -8 7 -13 7 -5 0 -58 21 -117 46 -136 58 -239 92 -322 104 -67 10 -170 11 -205 3z m254 -64 c94 -30 136 -46 261 -101 244 -109 310 -128 432 -128 99 0 181 -20 215 -52 33 -30 66 -105 59 -132 -13 -51 -102 -121 -182 -144 -68 -20 -299 -15 -364 8 -31 11 -59 15 -64 10 -16 -16 4 -41 49 -61 36 -16 68 -20 167 -20 68 -1 140 2 161 6 25 5 37 4 37 -4 0 -14 -127 -135 -189 -179 -52 -38 -104 -62 -132 -62 -21 0 -25 -20 -8 -37 14 -14 85 7 145 42 24 14 98 81 167 149 129 129 169 156 287 189 283 78 590 89 840 30 245 -58 440 -163 605 -328 141 -140 155 -163 155 -249 0 -59 -2 -66 -31 -90 -24 -21 -41 -26 -83 -26 -53 0 -165 32 -263 75 -31 14 -62 25 -69 25 -8 0 -14 5 -14 10 0 6 -6 10 -12 10 -7 0 -41 15 -75 33 -183 96 -227 117 -281 136 -237 84 -435 89 -627 14 -75 -29 -90 -37 -214 -120 -68 -46 -124 -83 -125 -83 -1 0 -54 -34 -117 -76 -124 -82 -317 -182 -389 -203 -25 -7 -58 -16 -75 -21 -69 -21 -319 -31 -800 -35 -459 -4 -525 -6 -660 -26 -88 -13 -236 -24 -360 -29 -115 -4 -211 -8 -212 -9 0 0 -3 -85 -5 -188 -5 -185 -9 -213 -47 -293 -32 -69 -67 -49 -182 105 -82 111 -111 137 -186 165 -84 32 -163 39 -412 38 -184 0 -224 -3 -228 -15 -9 -24 10 -33 82 -38 37 -2 70 -7 73 -10 3 -3 -10 -22 -29 -43 -54 -57 -87 -106 -120 -177 -32 -67 -42 -77 -53 -48 -7 17 -55 246 -63 301 -3 18 -9 35 -14 38 -5 3 -9 13 -9 23 0 24 -57 102 -132 180 -35 36 -76 83 -91 103 l-27 37 42 12 c61 16 92 34 112 64 27 41 -4 43 -80 5 -36 -17 -72 -29 -80 -26 -10 4 -14 22 -14 66 0 49 3 62 17 66 47 14 84 39 80 53 -2 9 -10 14 -18 13 -8 -2 -29 -6 -47 -9 -30 -5 -32 -4 -32 26 0 24 6 34 25 41 28 11 33 28 10 36 -8 4 -15 14 -15 23 0 18 61 126 84 149 9 9 50 15 127 17 116 4 182 14 394 60 309 66 478 82 521 50 28 -21 64 -19 64 3 0 55 -97 78 -257 62 -59 -6 -121 -15 -138 -20 -60 -18 -372 -80 -455 -90 -173 -21 -349 -6 -485 43 -71 24 -195 93 -286 158 -176 124 -296 299 -274 398 7 34 19 40 95 51 119 17 202 -14 385 -144 147 -105 182 -125 265 -159 69 -27 85 -30 190 -30 105 0 230 18 315 44 55 16 319 78 400 94 233 44 422 -3 560 -140 34 -34 75 -85 92 -115 35 -62 78 -191 88 -265 7 -52 21 -79 36 -69 14 9 10 113 -7 178 -34 129 -140 300 -215 345 -16 10 -26 21 -22 24 12 13 172 7 371 -12 108 -11 288 -22 400 -24 112 -3 206 -7 209 -10 3 -4 -2 -24 -11 -47 -19 -47 -21 -166 -5 -219 23 -75 69 -156 102 -178 69 -47 78 -15 14 49 -97 97 -104 298 -16 418 13 16 29 30 36 30 7 0 13 4 13 8 0 12 99 59 160 75 135 37 295 48 387 26 27 -6 118 -33 203 -60 147 -46 220 -60 220 -40 0 4 -62 32 -137 60 -76 29 -147 56 -158 61 -65 25 -151 43 -225 47 -47 2 -91 6 -97 8 -7 3 -13 20 -13 39 0 66 0 66 128 66 64 0 132 -5 151 -11z m-2882 -56 c69 -17 101 -45 127 -111 9 -23 16 -62 16 -87 0 -54 -1 -55 -210 -71 -119 -9 -245 26 -323 89 -55 44 -30 139 49 185 37 22 46 23 159 17 66 -4 148 -13 182 -22z"/>
 <path d="M2234 1345 c-16 -8 -45 -20 -64 -29 -19 -9 -80 -27 -135 -41 -55 -15 -104 -30 -109 -35 -14 -14 1 -40 23 -40 30 0 148 28 219 53 58 19 132 68 132 87 0 15 -38 18 -66 5z"/>
 <path d="M1361 1250 c-18 -4 -42 -17 -53 -28 -19 -19 -20 -19 -56 0 -56 28 -134 4 -119 -36 5 -12 16 -14 52 -9 41 5 49 3 75 -22 30 -28 60 -29 60 -1 0 39 103 62 152 34 35 -21 67 -61 68 -86 0 -35 44 -27 46 8 3 54 -55 121 -121 139 -45 12 -56 12 -104 1z"/>
 <path d="M2095 1111 c-121 -6 -130 -7 -130 -26 0 -19 8 -20 201 -23 182 -2 202 -1 208 14 4 10 2 22 -3 27 -13 13 -115 16 -276 8z"/>
 <path d="M1247 1066 c-3 -7 1 -23 10 -35 17 -25 51 -25 67 1 8 14 6 21 -9 32 -25 19 -61 20 -68 2z"/>
 <path d="M1957 1003 c-4 -3 -7 -14 -7 -24 0 -13 15 -22 58 -34 215 -61 357 -74 300 -27 -7 5 -58 19 -113 30 -140 29 -189 42 -199 53 -12 11 -30 12 -39 2z"/>
 <path d="M1650 925 c-56 -17 -93 -54 -88 -87 4 -30 42 -32 46 -2 2 17 16 25 63 38 85 24 120 10 149 -58 20 -49 22 -50 36 -31 21 27 10 84 -21 112 -26 23 -84 43 -120 42 -11 0 -40 -7 -65 -14z"/>
 <path d="M1183 870 c-37 -22 -50 -58 -33 -90 16 -30 46 -22 42 12 -2 19 2 28 18 33 29 9 75 -3 96 -26 24 -26 44 -24 44 5 0 15 -13 36 -35 55 -42 37 -85 40 -132 11z"/>
 </g>

</svg>