<?xml version="1.0" standalone="no"?>
<!DOCTYPE svg PUBLIC "-//W3C//DTD SVG 20010904//EN"
 "http://www.w3.org/TR/2001/REC-SVG-20010904/DTD/svg10.dtd">
<svg version="1.0" xmlns="http://www.w3.org/2000/svg"
 width="368.000000pt" height="121.000000pt" viewBox="0 0 368.000000 121.000000"
 preserveAspectRatio="xMidYMid meet">


<path fill="#FFFFFF" stroke="none" d="M 19.23 101.60 L 21.19 97.29 L 23.90 93.26 L 27.46 89.51 L 31.26 86.15 L 35.19 83.23 L 39.32 80.80 L 43.57 78.60 L 48.04 76.97 L 52.68 75.67 L 57.66 75.12 L 62.81 74.94 L 67.96 75.12 L 73.00 75.52 L 77.91 76.22 L 82.72 77.15 L 87.45 78.25 L 92.26 79.16 L 97.08 80.09 L 102.05 80.64 L 107.20 80.82 L 111.85 79.53 L 110.34 77.35 L 105.29 77.69 L 100.14 77.51 L 95.25 76.78 L 90.44 75.85 L 85.70 74.78 L 80.90 73.83 L 76.02 73.05 L 71.11 72.36 L 66.13 71.81 L 61.10 71.37 L 57.03 68.97 L 54.84 64.73 L 53.83 60.24 L 55.54 57.04 L 57.10 55.63 L 53.42 52.83 L 54.09 48.45 L 58.81 49.57 L 61.24 48.70 L 57.50 45.51 L 56.28 42.33 L 59.56 38.50 L 62.71 34.62 L 65.29 30.58 L 67.37 26.28 L 68.92 21.76 L 69.45 16.78 L 70.69 12.11 L 72.59 12.28 L 74.98 16.42 L 77.74 20.40 L 79.86 24.47 L 74.91 25.09 L 75.78 26.94 L 80.93 27.12 L 86.08 26.93 L 91.31 26.94 L 96.45 26.76 L 101.52 26.39 L 106.24 25.28 L 110.23 22.42 L 113.50 18.57 L 116.65 14.71 L 120.20 10.96 L 123.74 12.75 L 125.03 17.39 L 125.59 22.36 L 125.76 27.51 L 125.76 32.74 L 127.69 36.13 L 132.84 36.32 L 137.98 36.50 L 142.96 37.05 L 147.96 37.55 L 153.09 37.79 L 158.24 37.98 L 163.30 38.34 L 168.45 38.53 L 173.59 38.71 L 178.82 38.70 L 183.97 38.89 L 189.12 39.08 L 194.26 39.26 L 199.50 39.26 L 204.64 39.44 L 209.79 39.63 L 214.94 39.81 L 220.00 40.18 L 225.02 40.63 L 229.79 41.64 L 234.26 43.30 L 238.58 45.33 L 242.81 47.54 L 246.97 49.89 L 251.08 52.33 L 255.14 54.90 L 259.14 57.61 L 263.11 60.34 L 267.18 62.90 L 271.35 65.22 L 275.76 67.04 L 280.48 68.13 L 285.46 68.68 L 290.61 68.50 L 295.59 67.95 L 300.32 66.84 L 304.90 65.45 L 309.34 63.72 L 313.65 61.68 L 317.80 59.33 L 322.11 57.27 L 326.43 55.25 L 330.90 53.60 L 335.47 52.18 L 340.35 51.40 L 344.87 53.02 L 346.56 57.47 L 344.73 61.87 L 341.98 65.88 L 338.59 69.69 L 334.73 72.92 L 330.72 75.68 L 326.67 78.25 L 322.43 80.46 L 318.04 82.29 L 313.57 83.94 L 308.93 85.24 L 304.12 86.15 L 299.14 86.70 L 293.99 86.89 L 288.76 86.89 L 283.61 86.70 L 278.55 86.35 L 273.66 85.61 L 268.86 84.64 L 264.29 83.22 L 259.98 81.19 L 256.08 78.11 L 252.44 74.63 L 248.76 71.26 L 244.85 68.19 L 240.74 65.74 L 236.04 65.08 L 239.17 67.95 L 243.31 70.33 L 247.24 73.33 L 251.03 76.74 L 251.15 78.80 L 245.92 78.80 L 240.77 78.98 L 235.79 79.53 L 231.93 82.15 L 236.25 82.29 L 241.15 81.55 L 246.30 81.37 L 251.36 81.73 L 255.90 83.25 L 259.98 85.83 L 262.84 89.83 L 260.76 94.13 L 256.96 97.18 L 252.07 97.92 L 247.01 98.29 L 242.28 99.40 L 237.64 100.68 L 233.17 102.35 L 228.73 104.06 L 224.39 106.01 L 219.93 107.69 L 215.43 109.27 L 210.72 110.43 L 205.75 110.98 L 201.18 109.48 L 201.89 105.65 L 206.87 105.10 L 211.68 104.18 L 216.32 102.87 L 220.82 101.30 L 225.26 99.57 L 229.58 97.55 L 227.70 96.63 L 223.06 97.93 L 218.44 99.26 L 213.70 100.32 L 208.84 101.14 L 203.73 101.42 L 198.59 101.22 L 193.69 100.51 L 189.05 99.21 L 184.82 97.00 L 180.90 93.99 L 178.94 89.66 L 178.20 84.77 L 178.94 79.87 L 180.78 75.49 L 183.54 71.47 L 180.53 71.81 L 177.65 75.70 L 176.32 80.32 L 176.00 85.40 L 176.18 90.54 L 174.09 93.51 L 168.95 93.69 L 163.80 93.88 L 158.65 94.05 L 153.59 94.43 L 148.44 94.60 L 143.38 94.98 L 138.32 95.35 L 133.25 95.72 L 128.19 96.08 L 131.38 92.52 L 134.41 88.60 L 136.97 84.53 L 138.78 80.14 L 139.93 75.43 L 140.30 70.37 L 138.26 71.84 L 137.05 76.52 L 135.62 81.09 L 133.43 85.33 L 130.41 89.23 L 126.76 92.69 L 122.72 95.35 L 118.41 97.37 L 113.43 97.92 L 108.37 97.92 L 103.37 97.42 L 98.45 96.74 L 93.65 95.80 L 88.88 94.80 L 84.15 93.69 L 79.41 92.60 L 74.53 91.86 L 69.63 91.12 L 64.48 90.93 L 59.42 91.30 L 54.86 92.78 L 50.64 95.01 L 46.58 97.56 L 42.53 100.16 L 38.55 102.89 L 34.41 105.28 L 30.02 107.12 L 25.04 107.67 L 20.44 106.29 L 19.23 101.60 Z"/>

<path fill="#FFFFFF" stroke="none" d="M 49.59 100.50 L 49.78 100.30 L 49.76 100.01 L 49.93 99.80 L 49.98 99.52 L 50.21 99.35 L 50.32 99.11 L 50.46 98.88 L 50.67 98.68 L 50.87 98.48 L 51.07 98.27 L 51.29 98.10 L 51.54 98.02 L 51.73 97.80 L 51.92 97.58 L 52.20 97.54 L 52.38 97.32 L 52.61 97.19 L 52.84 97.06 L 53.10 97.00 L 53.29 96.79 L 53.51 96.63 L 53.74 96.52 L 54.00 96.45 L 54.21 96.26 L 54.46 96.19 L 54.70 96.08 L 54.97 96.04 L 55.19 95.90 L 55.42 95.77 L 55.69 95.72 L 55.93 95.63 L 56.18 95.52 L 56.45 95.49 L 56.67 95.34 L 56.96 95.35 L 57.21 95.27 L 57.45 95.16 L 57.74 95.17 L 57.98 95.05 L 58.23 94.98 L 58.52 94.98 L 58.80 94.97 L 59.01 94.78 L 59.30 94.80 L 59.59 94.80 L 59.82 94.67 L 60.08 94.61 L 60.37 94.61 L 60.66 94.61 L 60.95 94.62 L 61.16 94.44 L 61.44 94.43 L 61.73 94.43 L 62.02 94.43 L 62.31 94.43 L 62.56 94.34 L 62.80 94.24 L 63.09 94.24 L 63.38 94.24 L 63.66 94.24 L 63.95 94.24 L 64.24 94.24 L 64.53 94.24 L 64.82 94.26 L 65.03 94.07 L 65.31 94.06 L 65.60 94.06 L 65.89 94.06 L 66.17 94.06 L 66.46 94.06 L 66.75 94.06 L 67.04 94.06 L 67.33 94.06 L 67.62 94.06 L 67.90 94.06 L 68.19 94.06 L 68.48 94.06 L 68.77 94.06 L 69.06 94.06 L 69.35 94.06 L 69.63 94.06 L 69.92 94.06 L 70.21 94.06 L 70.46 94.14 L 70.70 94.25 L 70.99 94.24 L 71.28 94.24 L 71.57 94.24 L 71.86 94.24 L 72.15 94.25 L 72.43 94.26 L 72.64 94.44 L 72.93 94.43 L 73.22 94.43 L 73.50 94.43 L 73.71 94.62 L 74.00 94.61 L 74.28 94.61 L 74.53 94.71 L 74.78 94.80 L 75.04 94.85 L 75.27 94.98 L 75.49 95.13 L 75.76 95.18 L 75.95 95.39 L 76.08 95.63 L 76.21 95.86 L 76.43 96.04 L 76.44 96.32 L 76.56 96.56 L 76.64 96.81 L 76.70 97.07 L 76.83 97.31 L 76.82 97.59 L 76.82 97.88 L 76.82 98.17 L 76.82 98.46 L 76.82 98.75 L 76.82 99.04 L 76.82 99.32 L 76.82 99.61 L 76.83 99.90 L 76.65 100.11 L 76.64 100.39 L 76.64 100.68 L 76.44 100.89 L 76.47 101.17 L 76.29 101.39 L 76.28 101.66 L 76.14 101.89 L 76.08 102.16 L 75.90 102.36 L 75.81 102.61 L 75.72 102.86 L 75.54 103.06 L 75.49 103.34 L 75.25 103.50 L 75.17 103.76 L 75.00 103.97 L 74.80 104.17 L 74.61 104.38 L 74.54 104.64 L 74.32 104.83 L 74.12 105.04 L 73.91 105.24 L 73.71 105.44 L 73.51 105.65 L 73.30 105.85 L 73.10 106.05 L 72.91 106.27 L 72.66 106.38 L 72.45 106.54 L 72.18 106.59 L 71.96 106.76 L 71.68 106.74 L 71.47 106.94 L 71.19 106.93 L 70.90 106.95 L 70.69 107.13 L 70.40 107.12 L 70.12 107.12 L 69.83 107.12 L 69.54 107.12 L 69.26 107.13 L 69.05 107.31 L 68.76 107.30 L 68.47 107.30 L 68.18 107.30 L 67.89 107.30 L 67.60 107.30 L 67.32 107.30 L 67.03 107.30 L 66.74 107.30 L 66.45 107.30 L 66.16 107.30 L 65.87 107.30 L 65.59 107.30 L 65.30 107.30 L 65.01 107.30 L 64.72 107.30 L 64.43 107.30 L 64.14 107.30 L 63.86 107.30 L 63.57 107.30 L 63.28 107.30 L 62.99 107.30 L 62.70 107.30 L 62.41 107.30 L 62.13 107.30 L 61.84 107.30 L 61.55 107.30 L 61.26 107.30 L 60.97 107.30 L 60.68 107.30 L 60.40 107.30 L 60.11 107.30 L 59.82 107.30 L 59.53 107.30 L 59.24 107.30 L 58.95 107.30 L 58.67 107.30 L 58.38 107.30 L 58.09 107.30 L 57.80 107.30 L 57.51 107.30 L 57.22 107.30 L 56.94 107.30 L 56.65 107.30 L 56.36 107.30 L 56.07 107.30 L 55.80 107.26 L 55.58 107.10 L 55.29 107.12 L 55.00 107.12 L 54.71 107.12 L 54.42 107.11 L 54.15 107.09 L 53.93 106.92 L 53.64 106.93 L 53.38 106.87 L 53.15 106.74 L 52.87 106.73 L 52.68 106.51 L 52.45 106.38 L 52.21 106.26 L 52.02 106.05 L 51.81 105.85 L 51.61 105.64 L 51.41 105.44 L 51.20 105.24 L 51.06 105.01 L 50.95 104.77 L 50.72 104.60 L 50.68 104.32 L 50.46 104.14 L 50.33 103.91 L 50.19 103.68 L 50.13 103.42 L 49.95 103.21 L 49.85 102.96 L 49.77 102.72 L 49.71 102.46 L 49.58 102.22 L 49.59 101.94 L 49.59 101.65 L 49.59 101.36 L 49.59 101.07 L 49.59 100.78 L 49.59 100.50 Z"/>
<g transform="translate(0.000000,121.000000) scale(0.100000,-0.100000)"
fill="#000000" stroke="none">
<path d="M700 1131 c-5 -11 -18 -55 -29 -98 -10 -44 -28 -97 -39 -119 -29 -55
-120 -154 -142 -154 -28 0 -34 -18 -8 -22 19 -2 23 -9 21 -32 -3 -36 -17 -46
-70 -46 -45 0 -73 -8 -73 -20 0 -4 32 -7 72 -6 60 1 73 -2 76 -15 2 -11 -7
-20 -27 -27 -17 -6 -31 -18 -31 -27 0 -12 4 -14 19 -5 32 17 46 12 60 -22 8
-18 15 -37 15 -41 1 -5 -33 -23 -74 -41 -95 -41 -151 -76 -213 -134 -62 -59
-89 -110 -83 -158 6 -45 18 -54 77 -54 58 0 101 15 164 57 l50 33 8 -29 c4
-16 20 -40 35 -51 24 -20 36 -22 112 -17 125 6 160 28 175 110 4 20 12 37 19
37 6 0 54 -12 105 -25 110 -29 226 -33 291 -10 24 8 77 15 119 15 42 0 160 5
263 11 l187 11 31 -25 c17 -15 56 -34 88 -43 68 -19 87 -28 87 -40 1 -5 4 -21
8 -36 15 -57 115 -47 307 33 88 36 137 50 192 55 40 4 85 13 100 21 36 18 62
67 54 104 -6 34 -3 35 55 12 35 -13 78 -17 204 -17 155 -1 163 0 255 32 114
38 200 93 269 168 81 88 91 171 26 203 -44 21 -80 11 -380 -115 -176 -73 -286
-58 -485 67 -154 96 -233 135 -304 148 -33 6 -156 13 -275 16 -333 8 -632 25
-677 37 l-41 12 -5 85 c-6 102 -27 161 -58 161 -12 0 -55 -33 -106 -80 l-85
-80 -87 0 c-115 0 -132 10 -192 123 -34 61 -44 68 -60 38z m87 -135 c25 -28
21 -36 -18 -36 -15 0 -31 -5 -35 -11 -4 -8 40 -10 154 -7 185 4 185 3 263 104
25 32 53 60 61 62 27 5 48 -69 48 -168 l0 -90 58 -1 c31 0 91 -4 132 -10 41
-5 237 -13 435 -18 331 -8 365 -10 425 -30 71 -24 160 -73 290 -161 111 -75
134 -86 209 -100 106 -19 240 12 366 86 75 43 194 85 233 82 29 -2 40 -9 51
-32 13 -27 12 -34 -9 -74 -50 -94 -199 -194 -347 -233 -143 -37 -390 -22 -493
31 -19 10 -60 44 -90 75 -54 55 -114 95 -145 95 -27 0 -16 -16 20 -29 19 -7
59 -34 88 -61 l52 -49 -82 -1 c-45 0 -93 -4 -107 -10 -32 -12 -35 -35 -3 -26
46 14 144 18 184 7 51 -14 103 -56 103 -83 0 -11 -13 -33 -29 -49 -23 -23 -38
-29 -73 -29 -65 0 -157 -25 -255 -69 -140 -62 -236 -79 -263 -46 -21 25 -4 45
39 45 42 0 141 28 216 61 74 33 44 34 -52 3 -122 -40 -251 -41 -335 -2 -31 14
-64 37 -73 51 -36 56 -31 146 12 197 31 37 23 52 -12 20 -34 -32 -47 -80 -43
-153 l3 -62 -140 -6 c-77 -4 -187 -10 -245 -14 l-105 -8 37 39 c46 50 74 105
86 172 10 54 -2 85 -14 35 -18 -81 -26 -103 -54 -145 -31 -47 -82 -88 -135
-109 -55 -21 -164 -12 -322 25 -166 40 -258 46 -318 20 -21 -9 -80 -44 -131
-79 -68 -46 -106 -66 -139 -71 -206 -30 -48 222 190 307 86 30 216 29 365 -4
148 -33 228 -41 263 -28 46 18 31 29 -30 24 -57 -5 -95 0 -243 33 -41 9 -113
19 -160 23 -82 6 -85 7 -107 40 -13 19 -21 42 -18 52 3 9 1 20 -5 24 -20 12
-10 34 18 37 l27 4 -27 12 c-22 9 -28 18 -28 43 0 27 3 30 23 25 80 -21 74
-22 53 2 -10 12 -27 24 -37 27 -28 9 -24 18 32 79 47 52 89 137 89 183 0 10 5
36 11 57 l11 39 27 -46 c15 -26 37 -58 48 -71z m-39 -732 c31 -9 30 -63 -2
-101 -23 -27 -27 -28 -121 -28 -94 0 -98 1 -117 26 -27 36 -17 63 35 88 42 21
152 29 205 15z"/>
<path d="M667 804 c-16 -16 -6 -44 17 -50 34 -8 57 -2 70 18 15 25 2 32 -26
14 -24 -16 -42 -11 -49 12 -3 7 -8 10 -12 6z"/>
<path d="M992 775 c-9 -20 -19 -25 -46 -25 -19 0 -42 7 -51 16 -20 20 -33 10
-19 -14 18 -28 78 -38 109 -18 30 20 42 43 28 57 -6 6 -14 0 -21 -16z"/>
<path d="M1184 739 c-75 -14 -124 -30 -124 -40 0 -7 10 -9 28 -4 15 4 53 12
85 19 32 7 58 15 58 20 1 12 -4 13 -47 5z"/>
<path d="M710 664 c0 -9 7 -14 17 -12 25 5 28 28 4 28 -12 0 -21 -6 -21 -16z"/>
<path d="M1072 648 c3 -9 32 -13 98 -13 66 0 94 4 97 13 4 9 -20 12 -97 12
-77 0 -101 -3 -98 -12z"/>
<path d="M860 642 c0 -21 -39 -52 -67 -52 -14 0 -35 8 -45 17 -14 13 -21 14
-30 5 -7 -7 -25 -12 -40 -12 -15 0 -28 -4 -28 -9 0 -15 38 -23 56 -13 11 6 26
4 46 -6 39 -19 84 -6 111 31 16 21 18 30 9 39 -9 9 -12 9 -12 0z"/>
<path d="M1052 578 c3 -7 32 -20 65 -29 33 -9 69 -22 81 -28 29 -16 38 4 10
23 -24 15 -122 46 -146 46 -7 0 -12 -6 -10 -12z"/>
</g>
</svg>
