<?xml version="1.0" standalone="no"?>
<!DOCTYPE svg PUBLIC "-//W3C//DTD SVG 20010904//EN"
 "http://www.w3.org/TR/2001/REC-SVG-20010904/DTD/svg10.dtd">
<svg version="1.0" xmlns="http://www.w3.org/2000/svg"
 width="368.000000pt" height="121.000000pt" viewBox="0 0 368.000000 121.000000"
 preserveAspectRatio="xMidYMid meet">


<path fill="#FFFFFF" stroke="none" d="M 19.23 101.60 L 22.96 94.57 L 28.73 88.25 L 35.26 83.21 L 42.24 79.34 L 49.65 76.41 L 57.80 75.12 L 66.46 74.93 L 74.78 75.86 L 82.86 77.30 L 90.84 78.99 L 98.99 80.27 L 107.48 80.82 L 111.71 77.51 L 103.22 77.69 L 94.90 76.79 L 86.91 75.12 L 78.92 73.46 L 70.69 72.36 L 62.34 71.49 L 55.88 67.28 L 53.49 59.89 L 58.13 56.07 L 53.09 50.71 L 59.37 49.58 L 58.41 46.06 L 57.66 40.57 L 63.01 34.12 L 66.99 27.20 L 69.09 19.42 L 70.92 11.52 L 74.50 15.62 L 79.21 22.25 L 74.23 25.29 L 79.98 27.12 L 88.64 26.94 L 97.29 26.76 L 105.53 25.65 L 111.96 20.52 L 117.30 14.08 L 123.41 12.09 L 125.40 19.92 L 125.76 28.49 L 126.95 36.13 L 135.61 36.31 L 144.01 37.07 L 152.42 37.79 L 160.99 38.16 L 169.57 38.53 L 178.23 38.71 L 186.80 39.08 L 195.46 39.26 L 204.12 39.44 L 212.69 39.81 L 221.26 40.18 L 229.40 41.50 L 236.81 44.41 L 243.90 48.09 L 250.75 52.21 L 257.51 56.55 L 264.19 61.05 L 271.07 65.15 L 278.62 67.77 L 286.94 68.68 L 295.34 67.95 L 303.21 66.04 L 310.64 63.17 L 317.69 59.46 L 324.87 55.99 L 332.30 53.15 L 340.24 51.40 L 346.33 55.76 L 343.98 63.22 L 338.61 69.66 L 332.12 74.87 L 325.25 78.97 L 318.01 82.31 L 310.45 84.86 L 302.38 86.34 L 293.89 86.89 L 285.15 86.90 L 276.82 85.97 L 268.75 84.51 L 261.19 81.92 L 254.65 76.86 L 248.56 71.16 L 241.94 66.36 L 236.62 66.53 L 243.61 70.39 L 250.06 75.73 L 249.04 78.80 L 240.38 78.98 L 232.58 81.09 L 238.26 81.93 L 246.75 81.37 L 254.82 82.85 L 261.55 87.44 L 260.45 94.52 L 253.18 97.73 L 244.90 98.75 L 237.13 100.85 L 229.67 103.66 L 222.34 106.76 L 214.79 109.34 L 206.80 110.98 L 200.28 107.42 L 207.52 104.91 L 215.42 103.08 L 222.98 100.49 L 230.21 97.19 L 223.88 97.71 L 216.15 99.92 L 208.00 101.23 L 199.35 101.42 L 191.28 99.94 L 184.05 96.62 L 179.13 90.35 L 178.38 82.12 L 181.37 74.73 L 181.04 71.36 L 176.72 78.09 L 176.00 86.49 L 174.66 93.36 L 166.07 93.69 L 157.58 94.24 L 149.00 94.61 L 140.51 95.16 L 132.02 95.72 L 131.02 92.85 L 135.94 86.27 L 139.03 78.95 L 140.30 70.79 L 137.54 74.60 L 135.15 82.24 L 130.66 88.98 L 124.34 94.36 L 117.06 97.55 L 108.65 97.92 L 100.33 97.00 L 92.26 95.53 L 84.36 93.69 L 76.37 92.03 L 68.13 90.92 L 59.56 91.31 L 52.16 94.24 L 45.28 98.33 L 38.61 102.86 L 31.56 106.56 L 23.40 107.49 L 19.23 101.60 Z"/>

<path fill="#FFFFFF" stroke="none" d="M 49.59 100.50 L 49.77 100.10 L 49.96 99.71 L 50.21 99.35 L 50.39 98.93 L 50.74 98.61 L 51.08 98.27 L 51.48 98.08 L 51.81 97.73 L 52.21 97.54 L 52.53 97.19 L 52.92 97.00 L 53.30 96.77 L 53.70 96.58 L 54.08 96.38 L 54.47 96.17 L 54.91 96.09 L 55.31 95.89 L 55.71 95.72 L 56.11 95.52 L 56.52 95.39 L 56.98 95.35 L 57.38 95.15 L 57.86 95.17 L 58.26 94.98 L 58.74 94.99 L 59.14 94.79 L 59.62 94.81 L 60.02 94.61 L 60.50 94.61 L 60.98 94.62 L 61.38 94.43 L 61.87 94.43 L 62.35 94.44 L 62.75 94.23 L 63.23 94.24 L 63.71 94.24 L 64.19 94.24 L 64.67 94.24 L 65.07 94.05 L 65.55 94.06 L 66.04 94.06 L 66.52 94.06 L 67.00 94.06 L 67.48 94.06 L 67.96 94.06 L 68.44 94.06 L 68.93 94.06 L 69.41 94.06 L 69.89 94.06 L 70.37 94.06 L 70.77 94.24 L 71.25 94.24 L 71.73 94.24 L 72.22 94.24 L 72.61 94.44 L 73.10 94.43 L 73.56 94.47 L 73.98 94.61 L 74.45 94.63 L 74.85 94.78 L 75.25 94.98 L 75.65 95.16 L 76.02 95.44 L 76.20 95.85 L 76.46 96.22 L 76.63 96.62 L 76.69 97.07 L 76.82 97.49 L 76.82 97.97 L 76.82 98.45 L 76.82 98.93 L 76.82 99.42 L 76.83 99.90 L 76.63 100.30 L 76.57 100.75 L 76.47 101.17 L 76.26 101.57 L 76.08 101.97 L 75.89 102.37 L 75.71 102.77 L 75.53 103.17 L 75.24 103.51 L 75.07 103.92 L 74.71 104.24 L 74.53 104.65 L 74.18 104.98 L 73.83 105.32 L 73.49 105.66 L 73.15 106.00 L 72.83 106.35 L 72.43 106.55 L 72.04 106.75 L 71.59 106.82 L 71.16 106.93 L 70.76 107.11 L 70.28 107.12 L 69.80 107.12 L 69.32 107.11 L 68.92 107.30 L 68.44 107.30 L 67.95 107.30 L 67.47 107.30 L 66.99 107.30 L 66.51 107.30 L 66.03 107.30 L 65.55 107.30 L 65.06 107.30 L 64.58 107.30 L 64.10 107.30 L 63.62 107.30 L 63.14 107.30 L 62.65 107.30 L 62.17 107.30 L 61.69 107.30 L 61.21 107.30 L 60.73 107.30 L 60.24 107.30 L 59.76 107.30 L 59.28 107.30 L 58.80 107.30 L 58.32 107.30 L 57.84 107.30 L 57.35 107.30 L 56.87 107.30 L 56.39 107.30 L 55.91 107.31 L 55.51 107.11 L 55.03 107.12 L 54.55 107.12 L 54.10 107.03 L 53.67 106.93 L 53.27 106.75 L 52.81 106.69 L 52.47 106.38 L 52.10 106.13 L 51.76 105.79 L 51.42 105.45 L 51.07 105.12 L 50.88 104.73 L 50.68 104.33 L 50.33 104.01 L 50.14 103.62 L 49.95 103.22 L 49.76 102.82 L 49.64 102.40 L 49.59 101.94 L 49.59 101.46 L 49.59 100.98 L 49.59 100.50 Z"/>
<g transform="translate(0.000000,121.000000) scale(0.100000,-0.100000)"
fill="#000000" stroke="none">
<path d="M700 1131 c-5 -11 -18 -55 -29 -98 -10 -44 -28 -97 -39 -119 -29 -55
-120 -154 -142 -154 -28 0 -34 -18 -8 -22 19 -2 23 -9 21 -32 -3 -36 -17 -46
-70 -46 -45 0 -73 -8 -73 -20 0 -4 32 -7 72 -6 60 1 73 -2 76 -15 2 -11 -7
-20 -27 -27 -17 -6 -31 -18 -31 -27 0 -12 4 -14 19 -5 32 17 46 12 60 -22 8
-18 15 -37 15 -41 1 -5 -33 -23 -74 -41 -95 -41 -151 -76 -213 -134 -62 -59
-89 -110 -83 -158 6 -45 18 -54 77 -54 58 0 101 15 164 57 l50 33 8 -29 c4
-16 20 -40 35 -51 24 -20 36 -22 112 -17 125 6 160 28 175 110 4 20 12 37 19
37 6 0 54 -12 105 -25 110 -29 226 -33 291 -10 24 8 77 15 119 15 42 0 160 5
263 11 l187 11 31 -25 c17 -15 56 -34 88 -43 68 -19 87 -28 87 -40 1 -5 4 -21
8 -36 15 -57 115 -47 307 33 88 36 137 50 192 55 40 4 85 13 100 21 36 18 62
67 54 104 -6 34 -3 35 55 12 35 -13 78 -17 204 -17 155 -1 163 0 255 32 114
38 200 93 269 168 81 88 91 171 26 203 -44 21 -80 11 -380 -115 -176 -73 -286
-58 -485 67 -154 96 -233 135 -304 148 -33 6 -156 13 -275 16 -333 8 -632 25
-677 37 l-41 12 -5 85 c-6 102 -27 161 -58 161 -12 0 -55 -33 -106 -80 l-85
-80 -87 0 c-115 0 -132 10 -192 123 -34 61 -44 68 -60 38z m87 -135 c25 -28
21 -36 -18 -36 -15 0 -31 -5 -35 -11 -4 -8 40 -10 154 -7 185 4 185 3 263 104
25 32 53 60 61 62 27 5 48 -69 48 -168 l0 -90 58 -1 c31 0 91 -4 132 -10 41
-5 237 -13 435 -18 331 -8 365 -10 425 -30 71 -24 160 -73 290 -161 111 -75
134 -86 209 -100 106 -19 240 12 366 86 75 43 194 85 233 82 29 -2 40 -9 51
-32 13 -27 12 -34 -9 -74 -50 -94 -199 -194 -347 -233 -143 -37 -390 -22 -493
31 -19 10 -60 44 -90 75 -54 55 -114 95 -145 95 -27 0 -16 -16 20 -29 19 -7
59 -34 88 -61 l52 -49 -82 -1 c-45 0 -93 -4 -107 -10 -32 -12 -35 -35 -3 -26
46 14 144 18 184 7 51 -14 103 -56 103 -83 0 -11 -13 -33 -29 -49 -23 -23 -38
-29 -73 -29 -65 0 -157 -25 -255 -69 -140 -62 -236 -79 -263 -46 -21 25 -4 45
39 45 42 0 141 28 216 61 74 33 44 34 -52 3 -122 -40 -251 -41 -335 -2 -31 14
-64 37 -73 51 -36 56 -31 146 12 197 31 37 23 52 -12 20 -34 -32 -47 -80 -43
-153 l3 -62 -140 -6 c-77 -4 -187 -10 -245 -14 l-105 -8 37 39 c46 50 74 105
86 172 10 54 -2 85 -14 35 -18 -81 -26 -103 -54 -145 -31 -47 -82 -88 -135
-109 -55 -21 -164 -12 -322 25 -166 40 -258 46 -318 20 -21 -9 -80 -44 -131
-79 -68 -46 -106 -66 -139 -71 -206 -30 -48 222 190 307 86 30 216 29 365 -4
148 -33 228 -41 263 -28 46 18 31 29 -30 24 -57 -5 -95 0 -243 33 -41 9 -113
19 -160 23 -82 6 -85 7 -107 40 -13 19 -21 42 -18 52 3 9 1 20 -5 24 -20 12
-10 34 18 37 l27 4 -27 12 c-22 9 -28 18 -28 43 0 27 3 30 23 25 80 -21 74
-22 53 2 -10 12 -27 24 -37 27 -28 9 -24 18 32 79 47 52 89 137 89 183 0 10 5
36 11 57 l11 39 27 -46 c15 -26 37 -58 48 -71z m-39 -732 c31 -9 30 -63 -2
-101 -23 -27 -27 -28 -121 -28 -94 0 -98 1 -117 26 -27 36 -17 63 35 88 42 21
152 29 205 15z"/>
<path d="M667 804 c-16 -16 -6 -44 17 -50 34 -8 57 -2 70 18 15 25 2 32 -26
14 -24 -16 -42 -11 -49 12 -3 7 -8 10 -12 6z"/>
<path d="M992 775 c-9 -20 -19 -25 -46 -25 -19 0 -42 7 -51 16 -20 20 -33 10
-19 -14 18 -28 78 -38 109 -18 30 20 42 43 28 57 -6 6 -14 0 -21 -16z"/>
<path d="M1184 739 c-75 -14 -124 -30 -124 -40 0 -7 10 -9 28 -4 15 4 53 12
85 19 32 7 58 15 58 20 1 12 -4 13 -47 5z"/>
<path d="M710 664 c0 -9 7 -14 17 -12 25 5 28 28 4 28 -12 0 -21 -6 -21 -16z"/>
<path d="M1072 648 c3 -9 32 -13 98 -13 66 0 94 4 97 13 4 9 -20 12 -97 12
-77 0 -101 -3 -98 -12z"/>
<path d="M860 642 c0 -21 -39 -52 -67 -52 -14 0 -35 8 -45 17 -14 13 -21 14
-30 5 -7 -7 -25 -12 -40 -12 -15 0 -28 -4 -28 -9 0 -15 38 -23 56 -13 11 6 26
4 46 -6 39 -19 84 -6 111 31 16 21 18 30 9 39 -9 9 -12 9 -12 0z"/>
<path d="M1052 578 c3 -7 32 -20 65 -29 33 -9 69 -22 81 -28 29 -16 38 4 10
23 -24 15 -122 46 -146 46 -7 0 -12 -6 -10 -12z"/>
</g>
</svg>
