<?xml version="1.0" standalone="no"?>
<!DOCTYPE svg PUBLIC "-//W3C//DTD SVG 20010904//EN"
 "http://www.w3.org/TR/2001/REC-SVG-20010904/DTD/svg10.dtd">
<svg version="1.0" xmlns="http://www.w3.org/2000/svg"
 width="368.000000pt" height="121.000000pt" viewBox="0 0 368.000000 121.000000"
 preserveAspectRatio="xMidYMid meet">


<path fill="#FFFFFF" stroke="none" d="M 19.23 101.60 L 21.81 96.24 L 25.62 91.35 L 30.29 86.89 L 35.22 83.22 L 40.41 80.25 L 45.80 77.68 L 51.54 75.93 L 57.71 75.12 L 64.18 74.94 L 70.55 75.30 L 76.76 76.03 L 82.78 77.20 L 88.76 78.42 L 94.76 79.62 L 100.92 80.45 L 107.30 80.82 L 112.93 78.76 L 107.70 77.51 L 101.32 77.53 L 95.12 76.77 L 89.16 75.49 L 83.20 74.19 L 77.16 73.09 L 70.95 72.36 L 64.66 71.81 L 58.65 70.60 L 55.10 65.73 L 53.70 60.10 L 56.91 56.76 L 54.78 54.53 L 53.26 48.95 L 59.02 49.56 L 60.30 47.57 L 55.32 44.26 L 58.80 39.25 L 62.84 34.44 L 65.97 29.32 L 68.32 23.86 L 69.27 17.75 L 70.75 11.88 L 73.32 13.52 L 76.45 18.64 L 80.09 23.58 L 74.68 25.22 L 77.30 27.12 L 83.85 27.12 L 90.31 26.94 L 96.77 26.76 L 103.06 26.20 L 108.55 23.89 L 112.97 19.33 L 116.89 14.48 L 121.61 10.39 L 124.63 15.31 L 125.58 21.42 L 125.76 27.88 L 125.76 34.42 L 130.60 36.32 L 137.06 36.50 L 143.36 37.05 L 149.65 37.61 L 156.03 37.97 L 162.49 38.16 L 168.87 38.52 L 175.33 38.71 L 181.79 38.89 L 188.25 39.08 L 194.71 39.26 L 201.17 39.44 L 207.63 39.63 L 214.10 39.81 L 220.47 40.18 L 226.68 40.92 L 232.47 42.57 L 237.93 44.96 L 243.23 47.72 L 248.37 50.76 L 253.54 53.82 L 258.55 57.18 L 263.55 60.55 L 268.60 63.80 L 273.98 66.39 L 279.81 67.95 L 286.01 68.68 L 292.41 68.36 L 298.52 67.40 L 304.29 65.71 L 309.84 63.55 L 315.18 60.88 L 320.42 58.02 L 325.85 55.55 L 331.42 53.41 L 337.20 51.77 L 343.35 51.88 L 346.56 56.79 L 344.54 62.42 L 340.76 67.32 L 336.18 71.71 L 331.22 75.34 L 326.10 78.45 L 320.79 81.19 L 315.26 83.39 L 309.51 85.12 L 303.44 86.14 L 297.22 86.90 L 290.68 86.89 L 284.22 86.70 L 277.93 86.15 L 271.80 85.23 L 265.93 83.76 L 260.39 81.53 L 255.52 77.70 L 251.04 73.43 L 246.27 69.22 L 241.21 65.93 L 235.79 65.73 L 240.91 68.68 L 245.90 72.16 L 250.66 76.37 L 250.36 78.80 L 243.82 78.80 L 237.44 79.17 L 231.98 81.67 L 236.99 82.10 L 243.28 81.56 L 249.66 81.55 L 255.52 83.05 L 260.56 86.44 L 262.37 91.76 L 258.39 96.45 L 252.52 97.92 L 246.22 98.48 L 240.35 99.96 L 234.65 101.80 L 229.12 104.01 L 223.60 106.24 L 218.05 108.42 L 212.27 110.06 L 206.14 110.98 L 200.66 108.79 L 203.96 105.28 L 210.13 104.45 L 215.95 102.89 L 221.65 101.04 L 227.18 98.82 L 229.19 96.27 L 223.32 97.73 L 217.61 99.56 L 211.61 100.76 L 205.36 101.42 L 198.82 101.42 L 192.78 100.31 L 187.16 98.29 L 182.04 95.13 L 178.93 89.95 L 178.40 83.83 L 179.68 77.87 L 182.81 72.72 L 180.74 71.68 L 177.28 76.58 L 176.00 82.54 L 176.18 88.99 L 174.33 93.51 L 167.87 93.69 L 161.49 94.06 L 155.09 94.37 L 148.65 94.61 L 142.28 94.97 L 135.98 95.53 L 129.60 95.90 L 131.23 92.63 L 135.04 87.76 L 137.88 82.51 L 139.58 76.74 L 140.30 70.53 L 137.90 72.84 L 136.42 78.71 L 134.04 84.16 L 130.50 89.14 L 125.89 93.40 L 120.73 96.47 L 114.85 97.92 L 108.48 97.92 L 102.19 97.36 L 96.14 96.27 L 90.15 95.06 L 84.23 93.69 L 78.27 92.41 L 72.14 91.48 L 65.85 90.93 L 59.47 91.30 L 53.84 93.31 L 48.66 96.29 L 43.57 99.50 L 38.58 102.88 L 33.37 105.83 L 27.59 107.49 L 21.46 106.94 L 19.23 101.60 Z"/>

<path fill="#FFFFFF" stroke="none" d="M 49.59 100.50 L 49.78 100.22 L 49.82 99.89 L 49.95 99.59 L 50.21 99.35 L 50.32 99.04 L 50.57 98.79 L 50.82 98.53 L 51.07 98.27 L 51.36 98.11 L 51.63 97.90 L 51.87 97.63 L 52.20 97.54 L 52.42 97.26 L 52.75 97.16 L 53.04 97.00 L 53.29 96.78 L 53.59 96.64 L 53.87 96.45 L 54.15 96.29 L 54.47 96.18 L 54.78 96.09 L 55.06 95.92 L 55.38 95.82 L 55.69 95.72 L 55.98 95.56 L 56.33 95.55 L 56.61 95.34 L 56.97 95.35 L 57.26 95.21 L 57.61 95.16 L 57.94 95.10 L 58.24 94.98 L 58.60 94.98 L 58.91 94.85 L 59.24 94.80 L 59.60 94.81 L 59.88 94.62 L 60.24 94.61 L 60.60 94.61 L 60.96 94.62 L 61.24 94.42 L 61.60 94.43 L 61.96 94.43 L 62.32 94.43 L 62.61 94.27 L 62.96 94.25 L 63.32 94.24 L 63.68 94.24 L 64.04 94.24 L 64.40 94.24 L 64.76 94.25 L 65.04 94.06 L 65.40 94.06 L 65.76 94.06 L 66.12 94.06 L 66.48 94.06 L 66.84 94.06 L 67.20 94.06 L 67.57 94.06 L 67.93 94.06 L 68.29 94.06 L 68.65 94.06 L 69.01 94.06 L 69.37 94.06 L 69.73 94.06 L 70.09 94.06 L 70.43 94.10 L 70.73 94.25 L 71.09 94.24 L 71.45 94.24 L 71.81 94.24 L 72.17 94.25 L 72.49 94.33 L 72.81 94.43 L 73.17 94.43 L 73.53 94.44 L 73.81 94.62 L 74.17 94.62 L 74.50 94.68 L 74.81 94.79 L 75.10 94.93 L 75.42 95.04 L 75.72 95.16 L 75.98 95.41 L 76.09 95.73 L 76.35 95.96 L 76.45 96.28 L 76.59 96.58 L 76.62 96.92 L 76.82 97.20 L 76.82 97.56 L 76.82 97.92 L 76.82 98.28 L 76.82 98.64 L 76.82 99.00 L 76.82 99.36 L 76.82 99.72 L 76.73 100.04 L 76.64 100.36 L 76.62 100.71 L 76.44 100.99 L 76.37 101.32 L 76.27 101.63 L 76.12 101.92 L 76.01 102.23 L 75.89 102.54 L 75.72 102.82 L 75.53 103.10 L 75.40 103.41 L 75.16 103.65 L 75.03 103.95 L 74.76 104.20 L 74.62 104.49 L 74.39 104.76 L 74.14 105.01 L 73.88 105.27 L 73.63 105.52 L 73.37 105.78 L 73.12 106.03 L 72.88 106.30 L 72.56 106.40 L 72.27 106.56 L 71.99 106.76 L 71.64 106.77 L 71.36 106.94 L 71.00 106.92 L 70.72 107.13 L 70.36 107.12 L 70.00 107.12 L 69.64 107.12 L 69.28 107.12 L 69.00 107.31 L 68.64 107.30 L 68.28 107.30 L 67.92 107.30 L 67.56 107.30 L 67.19 107.30 L 66.83 107.30 L 66.47 107.30 L 66.11 107.30 L 65.75 107.30 L 65.39 107.30 L 65.03 107.30 L 64.67 107.30 L 64.31 107.30 L 63.95 107.30 L 63.59 107.30 L 63.23 107.30 L 62.86 107.30 L 62.50 107.30 L 62.14 107.30 L 61.78 107.30 L 61.42 107.30 L 61.06 107.30 L 60.70 107.30 L 60.34 107.30 L 59.98 107.30 L 59.62 107.30 L 59.26 107.30 L 58.90 107.30 L 58.54 107.30 L 58.17 107.30 L 57.81 107.30 L 57.45 107.30 L 57.09 107.30 L 56.73 107.30 L 56.37 107.30 L 56.01 107.30 L 55.71 107.16 L 55.37 107.12 L 55.01 107.12 L 54.65 107.12 L 54.29 107.13 L 54.01 106.94 L 53.65 106.93 L 53.34 106.82 L 53.01 106.76 L 52.73 106.58 L 52.46 106.38 L 52.17 106.21 L 51.92 105.95 L 51.67 105.70 L 51.41 105.44 L 51.14 105.20 L 51.05 104.88 L 50.77 104.65 L 50.68 104.32 L 50.40 104.10 L 50.30 103.78 L 50.14 103.49 L 49.95 103.21 L 49.80 102.92 L 49.79 102.58 L 49.58 102.30 L 49.59 101.94 L 49.59 101.58 L 49.59 101.22 L 49.59 100.86 L 49.59 100.50 Z"/>
<g transform="translate(0.000000,121.000000) scale(0.100000,-0.100000)"
fill="#000000" stroke="none">
<path d="M700 1131 c-5 -11 -18 -55 -29 -98 -10 -44 -28 -97 -39 -119 -29 -55
-120 -154 -142 -154 -28 0 -34 -18 -8 -22 19 -2 23 -9 21 -32 -3 -36 -17 -46
-70 -46 -45 0 -73 -8 -73 -20 0 -4 32 -7 72 -6 60 1 73 -2 76 -15 2 -11 -7
-20 -27 -27 -17 -6 -31 -18 -31 -27 0 -12 4 -14 19 -5 32 17 46 12 60 -22 8
-18 15 -37 15 -41 1 -5 -33 -23 -74 -41 -95 -41 -151 -76 -213 -134 -62 -59
-89 -110 -83 -158 6 -45 18 -54 77 -54 58 0 101 15 164 57 l50 33 8 -29 c4
-16 20 -40 35 -51 24 -20 36 -22 112 -17 125 6 160 28 175 110 4 20 12 37 19
37 6 0 54 -12 105 -25 110 -29 226 -33 291 -10 24 8 77 15 119 15 42 0 160 5
263 11 l187 11 31 -25 c17 -15 56 -34 88 -43 68 -19 87 -28 87 -40 1 -5 4 -21
8 -36 15 -57 115 -47 307 33 88 36 137 50 192 55 40 4 85 13 100 21 36 18 62
67 54 104 -6 34 -3 35 55 12 35 -13 78 -17 204 -17 155 -1 163 0 255 32 114
38 200 93 269 168 81 88 91 171 26 203 -44 21 -80 11 -380 -115 -176 -73 -286
-58 -485 67 -154 96 -233 135 -304 148 -33 6 -156 13 -275 16 -333 8 -632 25
-677 37 l-41 12 -5 85 c-6 102 -27 161 -58 161 -12 0 -55 -33 -106 -80 l-85
-80 -87 0 c-115 0 -132 10 -192 123 -34 61 -44 68 -60 38z m87 -135 c25 -28
21 -36 -18 -36 -15 0 -31 -5 -35 -11 -4 -8 40 -10 154 -7 185 4 185 3 263 104
25 32 53 60 61 62 27 5 48 -69 48 -168 l0 -90 58 -1 c31 0 91 -4 132 -10 41
-5 237 -13 435 -18 331 -8 365 -10 425 -30 71 -24 160 -73 290 -161 111 -75
134 -86 209 -100 106 -19 240 12 366 86 75 43 194 85 233 82 29 -2 40 -9 51
-32 13 -27 12 -34 -9 -74 -50 -94 -199 -194 -347 -233 -143 -37 -390 -22 -493
31 -19 10 -60 44 -90 75 -54 55 -114 95 -145 95 -27 0 -16 -16 20 -29 19 -7
59 -34 88 -61 l52 -49 -82 -1 c-45 0 -93 -4 -107 -10 -32 -12 -35 -35 -3 -26
46 14 144 18 184 7 51 -14 103 -56 103 -83 0 -11 -13 -33 -29 -49 -23 -23 -38
-29 -73 -29 -65 0 -157 -25 -255 -69 -140 -62 -236 -79 -263 -46 -21 25 -4 45
39 45 42 0 141 28 216 61 74 33 44 34 -52 3 -122 -40 -251 -41 -335 -2 -31 14
-64 37 -73 51 -36 56 -31 146 12 197 31 37 23 52 -12 20 -34 -32 -47 -80 -43
-153 l3 -62 -140 -6 c-77 -4 -187 -10 -245 -14 l-105 -8 37 39 c46 50 74 105
86 172 10 54 -2 85 -14 35 -18 -81 -26 -103 -54 -145 -31 -47 -82 -88 -135
-109 -55 -21 -164 -12 -322 25 -166 40 -258 46 -318 20 -21 -9 -80 -44 -131
-79 -68 -46 -106 -66 -139 -71 -206 -30 -48 222 190 307 86 30 216 29 365 -4
148 -33 228 -41 263 -28 46 18 31 29 -30 24 -57 -5 -95 0 -243 33 -41 9 -113
19 -160 23 -82 6 -85 7 -107 40 -13 19 -21 42 -18 52 3 9 1 20 -5 24 -20 12
-10 34 18 37 l27 4 -27 12 c-22 9 -28 18 -28 43 0 27 3 30 23 25 80 -21 74
-22 53 2 -10 12 -27 24 -37 27 -28 9 -24 18 32 79 47 52 89 137 89 183 0 10 5
36 11 57 l11 39 27 -46 c15 -26 37 -58 48 -71z m-39 -732 c31 -9 30 -63 -2
-101 -23 -27 -27 -28 -121 -28 -94 0 -98 1 -117 26 -27 36 -17 63 35 88 42 21
152 29 205 15z"/>
<path d="M667 804 c-16 -16 -6 -44 17 -50 34 -8 57 -2 70 18 15 25 2 32 -26
14 -24 -16 -42 -11 -49 12 -3 7 -8 10 -12 6z"/>
<path d="M992 775 c-9 -20 -19 -25 -46 -25 -19 0 -42 7 -51 16 -20 20 -33 10
-19 -14 18 -28 78 -38 109 -18 30 20 42 43 28 57 -6 6 -14 0 -21 -16z"/>
<path d="M1184 739 c-75 -14 -124 -30 -124 -40 0 -7 10 -9 28 -4 15 4 53 12
85 19 32 7 58 15 58 20 1 12 -4 13 -47 5z"/>
<path d="M710 664 c0 -9 7 -14 17 -12 25 5 28 28 4 28 -12 0 -21 -6 -21 -16z"/>
<path d="M1072 648 c3 -9 32 -13 98 -13 66 0 94 4 97 13 4 9 -20 12 -97 12
-77 0 -101 -3 -98 -12z"/>
<path d="M860 642 c0 -21 -39 -52 -67 -52 -14 0 -35 8 -45 17 -14 13 -21 14
-30 5 -7 -7 -25 -12 -40 -12 -15 0 -28 -4 -28 -9 0 -15 38 -23 56 -13 11 6 26
4 46 -6 39 -19 84 -6 111 31 16 21 18 30 9 39 -9 9 -12 9 -12 0z"/>
<path d="M1052 578 c3 -7 32 -20 65 -29 33 -9 69 -22 81 -28 29 -16 38 4 10
23 -24 15 -122 46 -146 46 -7 0 -12 -6 -10 -12z"/>
</g>
</svg>
